<svg width="1370" height="243" viewBox="0 0 1370 243" fill="none" xmlns="http://www.w3.org/2000/svg">
<rect y="39.1035" width="2" height="203.897" fill="url(#paint0_linear_2034_621)"/>
<rect x="228" y="86.0276" width="2" height="156.972" fill="url(#paint1_linear_2034_621)"/>
<rect x="456" y="39.1035" width="2" height="203.897" fill="url(#paint2_linear_2034_621)"/>
<rect x="684" width="2" height="243" fill="url(#paint3_linear_2034_621)"/>
<rect x="912" y="31.2828" width="2" height="211.717" fill="url(#paint4_linear_2034_621)"/>
<rect x="1140" y="86.0276" width="2" height="156.972" fill="url(#paint5_linear_2034_621)"/>
<rect x="76" y="58.6552" width="2" height="184.345" fill="url(#paint6_linear_2034_621)"/>
<rect x="304" y="76.531" width="2" height="166.469" fill="url(#paint7_linear_2034_621)"/>
<rect x="532" y="24.0207" width="2" height="218.979" fill="url(#paint8_linear_2034_621)"/>
<rect x="760" width="2" height="243" fill="url(#paint9_linear_2034_621)"/>
<rect x="988" y="48.6" width="2" height="194.4" fill="url(#paint10_linear_2034_621)"/>
<rect x="1216" y="86.0276" width="2" height="156.972" fill="url(#paint11_linear_2034_621)"/>
<rect x="152" y="76.531" width="2" height="166.469" fill="url(#paint12_linear_2034_621)"/>
<rect x="380" y="58.6552" width="2" height="184.345" fill="url(#paint13_linear_2034_621)"/>
<rect x="608" y="7.82068" width="2" height="235.179" fill="url(#paint14_linear_2034_621)"/>
<rect x="836" y="16.2" width="2" height="226.8" fill="url(#paint15_linear_2034_621)"/>
<rect x="1064" y="68.1517" width="2" height="174.848" fill="url(#paint16_linear_2034_621)"/>
<rect x="1292" y="68.1517" width="2" height="174.848" fill="url(#paint17_linear_2034_621)"/>
<rect x="38" y="48.6" width="2" height="194.4" fill="url(#paint18_linear_2034_621)"/>
<rect x="266" y="86.0276" width="2" height="156.972" fill="url(#paint19_linear_2034_621)"/>
<rect x="494" y="31.2828" width="2" height="211.717" fill="url(#paint20_linear_2034_621)"/>
<rect x="722" width="2" height="243" fill="url(#paint21_linear_2034_621)"/>
<rect x="950" y="39.1035" width="2" height="203.897" fill="url(#paint22_linear_2034_621)"/>
<rect x="1178" y="86.0276" width="2" height="156.972" fill="url(#paint23_linear_2034_621)"/>
<rect x="114" y="68.1517" width="2" height="174.848" fill="url(#paint24_linear_2034_621)"/>
<rect x="342" y="68.1517" width="2" height="174.848" fill="url(#paint25_linear_2034_621)"/>
<rect x="570" y="16.2" width="2" height="226.8" fill="url(#paint26_linear_2034_621)"/>
<rect x="798" y="7.82068" width="2" height="235.179" fill="url(#paint27_linear_2034_621)"/>
<rect x="1026" y="58.6552" width="2" height="184.345" fill="url(#paint28_linear_2034_621)"/>
<rect x="1254" y="76.531" width="2" height="166.469" fill="url(#paint29_linear_2034_621)"/>
<rect x="190" y="86.0276" width="2" height="156.972" fill="url(#paint30_linear_2034_621)"/>
<rect x="418" y="48.6" width="2" height="194.4" fill="url(#paint31_linear_2034_621)"/>
<rect x="646" width="2" height="243" fill="url(#paint32_linear_2034_621)"/>
<rect x="874" y="24.0207" width="2" height="218.979" fill="url(#paint33_linear_2034_621)"/>
<rect width="3" height="166.469" transform="matrix(-1 0 0 1 1107 76.531)" fill="url(#paint34_linear_2034_621)"/>
<rect x="1330" y="58.6552" width="2" height="184.345" fill="url(#paint35_linear_2034_621)"/>
<rect x="1368" y="48.6" width="2" height="194.4" fill="url(#paint36_linear_2034_621)"/>
<defs>
<linearGradient id="paint0_linear_2034_621" x1="1.00365" y1="34.4162" x2="-122.771" y2="300.795" gradientUnits="userSpaceOnUse">
<stop stop-color="#0F0F10"/>
<stop offset="1" stop-color="#9B9DA0"/>
</linearGradient>
<linearGradient id="paint1_linear_2034_621" x1="229.004" y1="82.419" x2="149.924" y2="303.483" gradientUnits="userSpaceOnUse">
<stop stop-color="#0F0F10"/>
<stop offset="1" stop-color="#9B9DA0"/>
</linearGradient>
<linearGradient id="paint2_linear_2034_621" x1="457.004" y1="34.4162" x2="333.229" y2="300.795" gradientUnits="userSpaceOnUse">
<stop stop-color="#0F0F10"/>
<stop offset="1" stop-color="#9B9DA0"/>
</linearGradient>
<linearGradient id="paint3_linear_2034_621" x1="685.004" y1="-5.58621" x2="521.412" y2="289.83" gradientUnits="userSpaceOnUse">
<stop stop-color="#0F0F10"/>
<stop offset="1" stop-color="#9B9DA0"/>
</linearGradient>
<linearGradient id="paint4_linear_2034_621" x1="913.004" y1="26.4157" x2="781.379" y2="299.225" gradientUnits="userSpaceOnUse">
<stop stop-color="#0F0F10"/>
<stop offset="1" stop-color="#9B9DA0"/>
</linearGradient>
<linearGradient id="paint5_linear_2034_621" x1="1141" y1="82.419" x2="1061.92" y2="303.483" gradientUnits="userSpaceOnUse">
<stop stop-color="#0F0F10"/>
<stop offset="1" stop-color="#9B9DA0"/>
</linearGradient>
<linearGradient id="paint6_linear_2034_621" x1="77.0036" y1="54.4173" x2="-27.5616" y2="303.323" gradientUnits="userSpaceOnUse">
<stop stop-color="#0F0F10"/>
<stop offset="1" stop-color="#9B9DA0"/>
</linearGradient>
<linearGradient id="paint7_linear_2034_621" x1="305.004" y1="72.7041" x2="217.307" y2="303.873" gradientUnits="userSpaceOnUse">
<stop stop-color="#0F0F10"/>
<stop offset="1" stop-color="#9B9DA0"/>
</linearGradient>
<linearGradient id="paint8_linear_2034_621" x1="533.004" y1="18.9867" x2="394.026" y2="297.484" gradientUnits="userSpaceOnUse">
<stop stop-color="#0F0F10"/>
<stop offset="1" stop-color="#9B9DA0"/>
</linearGradient>
<linearGradient id="paint9_linear_2034_621" x1="761.004" y1="-5.58621" x2="597.412" y2="289.83" gradientUnits="userSpaceOnUse">
<stop stop-color="#0F0F10"/>
<stop offset="1" stop-color="#9B9DA0"/>
</linearGradient>
<linearGradient id="paint10_linear_2034_621" x1="989.004" y1="44.131" x2="874.643" y2="302.274" gradientUnits="userSpaceOnUse">
<stop stop-color="#0F0F10"/>
<stop offset="1" stop-color="#9B9DA0"/>
</linearGradient>
<linearGradient id="paint11_linear_2034_621" x1="1217" y1="82.419" x2="1137.92" y2="303.483" gradientUnits="userSpaceOnUse">
<stop stop-color="#0F0F10"/>
<stop offset="1" stop-color="#9B9DA0"/>
</linearGradient>
<linearGradient id="paint12_linear_2034_621" x1="153.004" y1="72.7041" x2="65.3069" y2="303.873" gradientUnits="userSpaceOnUse">
<stop stop-color="#0F0F10"/>
<stop offset="1" stop-color="#9B9DA0"/>
</linearGradient>
<linearGradient id="paint13_linear_2034_621" x1="381.004" y1="54.4173" x2="276.438" y2="303.323" gradientUnits="userSpaceOnUse">
<stop stop-color="#0F0F10"/>
<stop offset="1" stop-color="#9B9DA0"/>
</linearGradient>
<linearGradient id="paint14_linear_2034_621" x1="609.004" y1="2.41426" x2="453.461" y2="292.636" gradientUnits="userSpaceOnUse">
<stop stop-color="#0F0F10"/>
<stop offset="1" stop-color="#9B9DA0"/>
</linearGradient>
<linearGradient id="paint15_linear_2034_621" x1="837.004" y1="10.9862" x2="690.052" y2="295.308" gradientUnits="userSpaceOnUse">
<stop stop-color="#0F0F10"/>
<stop offset="1" stop-color="#9B9DA0"/>
</linearGradient>
<linearGradient id="paint16_linear_2034_621" x1="1065" y1="64.1322" x2="969.496" y2="303.825" gradientUnits="userSpaceOnUse">
<stop stop-color="#0F0F10"/>
<stop offset="1" stop-color="#9B9DA0"/>
</linearGradient>
<linearGradient id="paint17_linear_2034_621" x1="1293" y1="64.1322" x2="1197.5" y2="303.825" gradientUnits="userSpaceOnUse">
<stop stop-color="#0F0F10"/>
<stop offset="1" stop-color="#9B9DA0"/>
</linearGradient>
<linearGradient id="paint18_linear_2034_621" x1="39.0036" y1="44.131" x2="-75.3573" y2="302.274" gradientUnits="userSpaceOnUse">
<stop stop-color="#0F0F10"/>
<stop offset="1" stop-color="#9B9DA0"/>
</linearGradient>
<linearGradient id="paint19_linear_2034_621" x1="267.004" y1="82.419" x2="187.924" y2="303.483" gradientUnits="userSpaceOnUse">
<stop stop-color="#0F0F10"/>
<stop offset="1" stop-color="#9B9DA0"/>
</linearGradient>
<linearGradient id="paint20_linear_2034_621" x1="495.004" y1="26.4157" x2="363.379" y2="299.225" gradientUnits="userSpaceOnUse">
<stop stop-color="#0F0F10"/>
<stop offset="1" stop-color="#9B9DA0"/>
</linearGradient>
<linearGradient id="paint21_linear_2034_621" x1="723.004" y1="-5.58621" x2="559.412" y2="289.83" gradientUnits="userSpaceOnUse">
<stop stop-color="#0F0F10"/>
<stop offset="1" stop-color="#9B9DA0"/>
</linearGradient>
<linearGradient id="paint22_linear_2034_621" x1="951.004" y1="34.4162" x2="827.229" y2="300.795" gradientUnits="userSpaceOnUse">
<stop stop-color="#0F0F10"/>
<stop offset="1" stop-color="#9B9DA0"/>
</linearGradient>
<linearGradient id="paint23_linear_2034_621" x1="1179" y1="82.419" x2="1099.92" y2="303.483" gradientUnits="userSpaceOnUse">
<stop stop-color="#0F0F10"/>
<stop offset="1" stop-color="#9B9DA0"/>
</linearGradient>
<linearGradient id="paint24_linear_2034_621" x1="115.004" y1="64.1322" x2="19.4962" y2="303.825" gradientUnits="userSpaceOnUse">
<stop stop-color="#0F0F10"/>
<stop offset="1" stop-color="#9B9DA0"/>
</linearGradient>
<linearGradient id="paint25_linear_2034_621" x1="343.004" y1="64.1322" x2="247.496" y2="303.825" gradientUnits="userSpaceOnUse">
<stop stop-color="#0F0F10"/>
<stop offset="1" stop-color="#9B9DA0"/>
</linearGradient>
<linearGradient id="paint26_linear_2034_621" x1="571.004" y1="10.9862" x2="424.052" y2="295.308" gradientUnits="userSpaceOnUse">
<stop stop-color="#0F0F10"/>
<stop offset="1" stop-color="#9B9DA0"/>
</linearGradient>
<linearGradient id="paint27_linear_2034_621" x1="799.004" y1="2.41426" x2="643.461" y2="292.636" gradientUnits="userSpaceOnUse">
<stop stop-color="#0F0F10"/>
<stop offset="1" stop-color="#9B9DA0"/>
</linearGradient>
<linearGradient id="paint28_linear_2034_621" x1="1027" y1="54.4173" x2="922.438" y2="303.323" gradientUnits="userSpaceOnUse">
<stop stop-color="#0F0F10"/>
<stop offset="1" stop-color="#9B9DA0"/>
</linearGradient>
<linearGradient id="paint29_linear_2034_621" x1="1255" y1="72.7041" x2="1167.31" y2="303.873" gradientUnits="userSpaceOnUse">
<stop stop-color="#0F0F10"/>
<stop offset="1" stop-color="#9B9DA0"/>
</linearGradient>
<linearGradient id="paint30_linear_2034_621" x1="191.004" y1="82.419" x2="111.924" y2="303.483" gradientUnits="userSpaceOnUse">
<stop stop-color="#0F0F10"/>
<stop offset="1" stop-color="#9B9DA0"/>
</linearGradient>
<linearGradient id="paint31_linear_2034_621" x1="419.004" y1="44.131" x2="304.643" y2="302.274" gradientUnits="userSpaceOnUse">
<stop stop-color="#0F0F10"/>
<stop offset="1" stop-color="#9B9DA0"/>
</linearGradient>
<linearGradient id="paint32_linear_2034_621" x1="647.004" y1="-5.58621" x2="483.412" y2="289.83" gradientUnits="userSpaceOnUse">
<stop stop-color="#0F0F10"/>
<stop offset="1" stop-color="#9B9DA0"/>
</linearGradient>
<linearGradient id="paint33_linear_2034_621" x1="875.004" y1="18.9867" x2="736.026" y2="297.484" gradientUnits="userSpaceOnUse">
<stop stop-color="#0F0F10"/>
<stop offset="1" stop-color="#9B9DA0"/>
</linearGradient>
<linearGradient id="paint34_linear_2034_621" x1="1.50547" y1="-3.82687" x2="-61.3525" y2="244.713" gradientUnits="userSpaceOnUse">
<stop stop-color="#0F0F10"/>
<stop offset="1" stop-color="#9B9DA0"/>
</linearGradient>
<linearGradient id="paint35_linear_2034_621" x1="1331" y1="54.4173" x2="1226.44" y2="303.323" gradientUnits="userSpaceOnUse">
<stop stop-color="#0F0F10"/>
<stop offset="1" stop-color="#9B9DA0"/>
</linearGradient>
<linearGradient id="paint36_linear_2034_621" x1="1369" y1="44.131" x2="1254.64" y2="302.274" gradientUnits="userSpaceOnUse">
<stop stop-color="#0F0F10"/>
<stop offset="1" stop-color="#9B9DA0"/>
</linearGradient>
</defs>
</svg>
